# xmcd
#
# Track frame offsets: 
#        150
#        14120
#        29022
#        43777
#        59827
#        73991
#        93409
#        105627
#        116818
#        130180
#        145999
#        158681
#        172749
#        190692
#        204430
#        219030
#        231838
#        249168
#        267289
#
# Disc length: 3724 seconds
#
# Revision: 0
# Processed by: cddbd v1.5.2PL0 Copyright (c) Steve Scherf et al.
# Submitted via: ExactAudioCopy v0.95b4
#
DISCID=150e8a13
DTITLE=Dolly Parton - The Very Best Of Volume 2
DYEAR=2007
DGENRE=Country
TTITLE0=Joshua
TTITLE1=The Seeker
TTITLE2=Harper Valley PTA
TTITLE3=Heartbreaker
TTITLE4=Two Doors Down
TTITLE5=Boulder To Birmingham
TTITLE6=Put It Off Until Tomorrow (Wit
TTITLE7=All I Can Do
TTITLE8=(Your Love Has Lifted Me) High
TTITLE9=Rockin' Years (Duet With Ricky
TTITLE10=In The Ghetto
TTITLE11=Just Because I'm A Woman
TTITLE12=Yellow Roses
TTITLE13=I Really Don't Want To Know (D
TTITLE14=Eagle When She Flies
TTITLE15=Please Don't Stop Loving Me (D
TTITLE16=Down From Dover
TTITLE17=Where Beauty Lives In Memory
TTITLE18=To Daddy
EXTD=
EXTT0=
EXTT1=
EXTT2=
EXTT3=
EXTT4=
EXTT5=
EXTT6=
EXTT7=
EXTT8=
EXTT9=
EXTT10=
EXTT11=
EXTT12=
EXTT13=
EXTT14=
EXTT15=
EXTT16=
EXTT17=
EXTT18=
PLAYORDER=
